<svg xmlns="http://www.w3.org/2000/svg" viewBox="-166.35829 -169.30879 369.98534 203.6333 " height="203.6333pt" width="369.98534pt"><g xmlns="http://www.w3.org/2000/svg" transform="translate(0,34.32451 ) scale(1,-1) translate(0,169.30879 )"><g xmlns="http://www.w3.org/2000/svg" fill="#000" stroke="#000"><g xmlns="http://www.w3.org/2000/svg" stroke-width="0.4"><g xmlns="http://www.w3.org/2000/svg" fill="#d6cbd8"><g xmlns="http://www.w3.org/2000/svg" fill="#d6cbd8"><path xmlns="http://www.w3.org/2000/svg" d=" M 34.12451 0.0 C 34.12451 18.84668 18.84668 34.12451 0.0 34.12451 C -18.84668 34.12451 -34.12451 18.84668 -34.12451 0.0 C -34.12451 -18.84668 -18.84668 -34.12451 0.0 -34.12451 C 18.84668 -34.12451 34.12451 -18.84668 34.12451 0.0 Z M 0.0 0.0  "/></g><g xmlns="http://www.w3.org/2000/svg" transform="translate(-29.99268,-2.47162)"><g xmlns="http://www.w3.org/2000/svg" fill="#000"><text xmlns="http://www.w3.org/2000/svg" font-size="10" text-anchor="middle" transform="scale(1,-1) translate(29.99268,0)" style="stroke:none"><tspan xmlns="http://www.w3.org/2000/svg" font-size="10" font-family="ecrm">Population</tspan></text></g></g></g><g xmlns="http://www.w3.org/2000/svg" transform="translate(-14.51035,-64.73898)"><g xmlns="http://www.w3.org/2000/svg" fill="#000"><text xmlns="http://www.w3.org/2000/svg" font-size="10" text-anchor="middle" transform="scale(1,-1) translate(14.51035,0)" style="stroke:none"><tspan xmlns="http://www.w3.org/2000/svg" font-size="10" fill="#9e9e9e" font-family="ecrm">Evolve</tspan></text></g></g><g xmlns="http://www.w3.org/2000/svg" stroke-width="1.2"><g xmlns="http://www.w3.org/2000/svg" fill="#626e80" stroke="#626e80"><path xmlns="http://www.w3.org/2000/svg" fill="none" d=" M 10.81375 -51.82024 C 3.50963 -47.60321 -3.50963 -47.60321 -9.77457 -51.22028  "/><g xmlns="http://www.w3.org/2000/svg" transform="matrix(-0.86601,-0.49998,0.49998,-0.86601,-10.29416,-51.52025)"><g xmlns="http://www.w3.org/2000/svg" stroke-dashoffset="0.0" stroke-dasharray="none"><g xmlns="http://www.w3.org/2000/svg" stroke-linecap="round"><g xmlns="http://www.w3.org/2000/svg" stroke-linejoin="round"><path xmlns="http://www.w3.org/2000/svg" fill="none" d=" M -3.04 3.84514 C -2.4846 1.53802 -1.24696 0.4486 0.0 0.0 C -1.24696 -0.4486 -2.4846 -1.53802 -3.04 -3.84514  "/></g></g></g></g></g></g><g xmlns="http://www.w3.org/2000/svg" stroke-width="1.2"><g xmlns="http://www.w3.org/2000/svg" fill="#626e80" stroke="#626e80"><path xmlns="http://www.w3.org/2000/svg" fill="none" d=" M -10.81375 -70.77052 C -3.50963 -74.98755 3.50963 -74.98755 9.77457 -71.37048  "/><g xmlns="http://www.w3.org/2000/svg" transform="matrix(0.86601,0.49998,-0.49998,0.86601,10.29416,-71.07051)"><g xmlns="http://www.w3.org/2000/svg" stroke-dashoffset="0.0" stroke-dasharray="none"><g xmlns="http://www.w3.org/2000/svg" stroke-linecap="round"><g xmlns="http://www.w3.org/2000/svg" stroke-linejoin="round"><path xmlns="http://www.w3.org/2000/svg" fill="none" d=" M -3.04 3.84514 C -2.4846 1.53802 -1.24696 0.4486 0.0 0.0 C -1.24696 -0.4486 -2.4846 -1.53802 -3.04 -3.84514  "/></g></g></g></g></g></g><g xmlns="http://www.w3.org/2000/svg" fill="#ffe6cc"><g xmlns="http://www.w3.org/2000/svg" fill="#b3c7e1"><g xmlns="http://www.w3.org/2000/svg" fill="#ffe6cc"><g xmlns="http://www.w3.org/2000/svg" fill="#b3c7e1"><path xmlns="http://www.w3.org/2000/svg" d=" M -118.50497 17.49573 L -162.1583 17.49573 C -164.36746 17.49573 -166.1583 15.7049 -166.1583 13.49573 L -166.1583 -13.49573 C -166.1583 -15.7049 -164.36746 -17.49573 -162.1583 -17.49573 L -118.50497 -17.49573 C -116.2958 -17.49573 -114.50497 -15.7049 -114.50497 -13.49573 L -114.50497 13.49573 C -114.50497 15.7049 -116.2958 17.49573 -118.50497 17.49573 Z M -166.1583 -17.49573  "/></g></g><g xmlns="http://www.w3.org/2000/svg" transform="translate(-162.82614,-2.47162)"><g xmlns="http://www.w3.org/2000/svg" fill="#000"><text xmlns="http://www.w3.org/2000/svg" font-size="10" text-anchor="middle" transform="scale(1,-1) translate(22.4945,0)" style="stroke:none"><tspan xmlns="http://www.w3.org/2000/svg" font-size="10" font-family="ecrm">Original</tspan></text></g></g></g></g><g xmlns="http://www.w3.org/2000/svg" transform="translate(-158.68826,-12.33553)"><g xmlns="http://www.w3.org/2000/svg" fill="#000"><text xmlns="http://www.w3.org/2000/svg" font-size="10" text-anchor="middle" transform="scale(1,-1) translate(18.35663,0)" style="stroke:none"><tspan xmlns="http://www.w3.org/2000/svg" font-size="10" font-family="ecrm">program</tspan></text></g></g><g xmlns="http://www.w3.org/2000/svg" fill="#ffe6cc"><g xmlns="http://www.w3.org/2000/svg" fill="#f4bcb4"><g xmlns="http://www.w3.org/2000/svg" fill="#ffe6cc"><g xmlns="http://www.w3.org/2000/svg" fill="#f4bcb4"><path xmlns="http://www.w3.org/2000/svg" d=" M 162.1583 19.99512 L 118.50497 19.99512 C 116.2958 19.99512 114.50497 18.20428 114.50497 15.99512 L 114.50497 -15.99512 C 114.50497 -18.20428 116.2958 -19.99512 118.50497 -19.99512 L 162.1583 -19.99512 C 164.36746 -19.99512 166.1583 -18.20428 166.1583 -15.99512 L 166.1583 15.99512 C 166.1583 18.20428 164.36746 19.99512 162.1583 19.99512 Z M 114.50497 -19.99512  "/></g></g><g xmlns="http://www.w3.org/2000/svg" transform="translate(117.83713,0.0)"><g xmlns="http://www.w3.org/2000/svg" fill="#000"><text xmlns="http://www.w3.org/2000/svg" font-size="10" text-anchor="middle" transform="scale(1,-1) translate(22.4945,0)" style="stroke:none"><NIL/></text></g></g></g></g><g xmlns="http://www.w3.org/2000/svg" fill="#ffe6cc"><g xmlns="http://www.w3.org/2000/svg" fill="#f4bcb4"><g xmlns="http://www.w3.org/2000/svg" fill="#ffe6cc"><g xmlns="http://www.w3.org/2000/svg" fill="#f4bcb4"><path xmlns="http://www.w3.org/2000/svg" d=" M 163.92563 18.22778 L 120.27231 18.22778 C 118.06314 18.22778 116.27231 16.43695 116.27231 14.22778 L 116.27231 -17.76245 C 116.27231 -19.97162 118.06314 -21.76245 120.27231 -21.76245 L 163.92563 -21.76245 C 166.1348 -21.76245 167.92563 -19.97162 167.92563 -17.76245 L 167.92563 14.22778 C 167.92563 16.43695 166.1348 18.22778 163.92563 18.22778 Z M 116.27231 -21.76245  "/></g></g><g xmlns="http://www.w3.org/2000/svg" transform="translate(119.60446,-1.76733)"><g xmlns="http://www.w3.org/2000/svg" fill="#000"><text xmlns="http://www.w3.org/2000/svg" font-size="10" text-anchor="middle" transform="scale(1,-1) translate(22.4945,0)" style="stroke:none"><NIL/></text></g></g></g></g><g xmlns="http://www.w3.org/2000/svg" fill="#ffe6cc"><g xmlns="http://www.w3.org/2000/svg" fill="#f4bcb4"><g xmlns="http://www.w3.org/2000/svg" fill="#ffe6cc"><g xmlns="http://www.w3.org/2000/svg" fill="#f4bcb4"><path xmlns="http://www.w3.org/2000/svg" d=" M 165.69296 16.46045 L 122.03964 16.46045 C 119.83047 16.46045 118.03964 14.66962 118.03964 12.46045 L 118.03964 -19.52979 C 118.03964 -21.73895 119.83047 -23.52979 122.03964 -23.52979 L 165.69296 -23.52979 C 167.90213 -23.52979 169.69296 -21.73895 169.69296 -19.52979 L 169.69296 12.46045 C 169.69296 14.66962 167.90213 16.46045 165.69296 16.46045 Z M 118.03964 -23.52979  "/></g></g><g xmlns="http://www.w3.org/2000/svg" transform="translate(121.3718,-3.53467)"><g xmlns="http://www.w3.org/2000/svg" fill="#000"><text xmlns="http://www.w3.org/2000/svg" font-size="10" text-anchor="middle" transform="scale(1,-1) translate(22.4945,0)" style="stroke:none"><NIL/></text></g></g></g></g><g xmlns="http://www.w3.org/2000/svg" fill="#ffe6cc"><g xmlns="http://www.w3.org/2000/svg" fill="#f4bcb4"><g xmlns="http://www.w3.org/2000/svg" fill="#ffe6cc"><g xmlns="http://www.w3.org/2000/svg" fill="#f4bcb4"><path xmlns="http://www.w3.org/2000/svg" d=" M 167.4603 14.69312 L 123.80698 14.69312 C 121.59781 14.69312 119.80698 12.90228 119.80698 10.69312 L 119.80698 -21.29712 C 119.80698 -23.50629 121.59781 -25.29712 123.80698 -25.29712 L 167.4603 -25.29712 C 169.66946 -25.29712 171.4603 -23.50629 171.4603 -21.29712 L 171.4603 10.69312 C 171.4603 12.90228 169.66946 14.69312 167.4603 14.69312 Z M 119.80698 -25.29712  "/></g></g><g xmlns="http://www.w3.org/2000/svg" transform="translate(123.13913,-8.61865)"><g xmlns="http://www.w3.org/2000/svg" fill="#000"><text xmlns="http://www.w3.org/2000/svg" font-size="10" text-anchor="middle" transform="scale(1,-1) translate(22.4945,0)" style="stroke:none"><tspan xmlns="http://www.w3.org/2000/svg" font-size="10" font-family="ecrm">variant</tspan></text></g></g></g></g><g xmlns="http://www.w3.org/2000/svg" transform="translate(125.30527,-17.63753)"><g xmlns="http://www.w3.org/2000/svg" fill="#000"><text xmlns="http://www.w3.org/2000/svg" font-size="10" text-anchor="middle" transform="scale(1,-1) translate(20.32837,0)" style="stroke:none"><tspan xmlns="http://www.w3.org/2000/svg" font-size="10" font-family="ecrm">programs</tspan></text></g></g><g xmlns="http://www.w3.org/2000/svg" transform="translate(127.16592,2.67351)"><g xmlns="http://www.w3.org/2000/svg" fill="#000"><text xmlns="http://www.w3.org/2000/svg" font-size="10" text-anchor="middle" transform="scale(1,-1) translate(18.46771,0)" style="stroke:none"><tspan xmlns="http://www.w3.org/2000/svg" font-size="10" font-family="ecrm">Multiple</tspan></text></g></g><g xmlns="http://www.w3.org/2000/svg" transform="translate(-117.7813,-67.7935)"><g xmlns="http://www.w3.org/2000/svg" fill="#000"><text xmlns="http://www.w3.org/2000/svg" font-size="10" text-anchor="middle" transform="scale(1,-1) translate(0.0,0)" style="stroke:none"><NIL/></text></g></g><g xmlns="http://www.w3.org/2000/svg" fill="#f4bcb4"><g xmlns="http://www.w3.org/2000/svg" fill="#f4bcb4"><path xmlns="http://www.w3.org/2000/svg" d=" M -67.47816 -59.47807 L -100.05159 -59.47807 C -102.26076 -59.47807 -104.05159 -61.2689 -104.05159 -63.47807 L -104.05159 -72.10893 C -104.05159 -74.3181 -102.26076 -76.10893 -100.05159 -76.10893 L -67.47816 -76.10893 C -65.269 -76.10893 -63.47816 -74.3181 -63.47816 -72.10893 L -63.47816 -63.47807 C -63.47816 -61.2689 -65.269 -59.47807 -67.47816 -59.47807 Z M -104.05159 -76.10893  "/></g><g xmlns="http://www.w3.org/2000/svg" transform="translate(-99.05281,-71.11015)"><g xmlns="http://www.w3.org/2000/svg" fill="#000"><text xmlns="http://www.w3.org/2000/svg" font-size="10" text-anchor="middle" transform="scale(1,-1) translate(15.28793,0)" style="stroke:none"><tspan xmlns="http://www.w3.org/2000/svg" font-size="10" font-family="ecrm">variant</tspan></text></g></g></g><g xmlns="http://www.w3.org/2000/svg" fill="#e2e5ea"><g xmlns="http://www.w3.org/2000/svg" fill="#e2e5ea"><path xmlns="http://www.w3.org/2000/svg" d=" M -43.32239 -128.05649 h 86.64478 v 13.55151 h -86.64478 Z  "/></g><g xmlns="http://www.w3.org/2000/svg" transform="translate(-39.99023,-124.72433)"><g xmlns="http://www.w3.org/2000/svg" fill="#000"><text xmlns="http://www.w3.org/2000/svg" font-size="10" text-anchor="middle" transform="scale(1,-1) translate(39.99023,0)" style="stroke:none"><tspan xmlns="http://www.w3.org/2000/svg" font-size="10" font-family="ecrm">Evaluate:</tspan></text></g></g></g><g xmlns="http://www.w3.org/2000/svg" fill="#e2e5ea"><g xmlns="http://www.w3.org/2000/svg" fill="#e2e5ea"><path xmlns="http://www.w3.org/2000/svg" d=" M -43.32239 -143.95197 h 86.64478 v 15.49548 h -86.64478 Z  "/></g><g xmlns="http://www.w3.org/2000/svg" transform="translate(-39.99023,-138.67584)"><g xmlns="http://www.w3.org/2000/svg" fill="#000"><text xmlns="http://www.w3.org/2000/svg" font-size="10" text-anchor="middle" transform="scale(1,-1) translate(39.99023,0)" style="stroke:none"><tspan xmlns="http://www.w3.org/2000/svg" font-size="10" font-family="ecrm">1. Compile</tspan></text></g></g></g><g xmlns="http://www.w3.org/2000/svg" fill="#e2e5ea"><g xmlns="http://www.w3.org/2000/svg" fill="#e2e5ea"><path xmlns="http://www.w3.org/2000/svg" d=" M -43.32239 -157.90347 h 86.64478 v 13.55151 h -86.64478 Z  "/></g><g xmlns="http://www.w3.org/2000/svg" transform="translate(-39.99023,-154.57132)"><g xmlns="http://www.w3.org/2000/svg" fill="#000"><text xmlns="http://www.w3.org/2000/svg" font-size="10" text-anchor="middle" transform="scale(1,-1) translate(39.99023,0)" style="stroke:none"><tspan xmlns="http://www.w3.org/2000/svg" font-size="10" font-family="ecrm">2. Test</tspan></text></g></g></g><g xmlns="http://www.w3.org/2000/svg" fill="#ffe6cc"><g xmlns="http://www.w3.org/2000/svg" fill="#b3c7e1"><g xmlns="http://www.w3.org/2000/svg" fill="#ffe6cc"><g xmlns="http://www.w3.org/2000/svg" fill="#b3c7e1"><path xmlns="http://www.w3.org/2000/svg" d=" M -118.50497 -134.11734 L -162.1583 -134.11734 C -164.36746 -134.11734 -166.1583 -135.90817 -166.1583 -138.11734 L -166.1583 -165.1088 C -166.1583 -167.31796 -164.36746 -169.1088 -162.1583 -169.1088 L -118.50497 -169.1088 C -116.2958 -169.1088 -114.50497 -167.31796 -114.50497 -165.1088 L -114.50497 -138.11734 C -114.50497 -135.90817 -116.2958 -134.11734 -118.50497 -134.11734 Z M -166.1583 -169.1088  "/></g></g><g xmlns="http://www.w3.org/2000/svg" transform="translate(-162.82614,-155.05667)"><g xmlns="http://www.w3.org/2000/svg" fill="#000"><text xmlns="http://www.w3.org/2000/svg" font-size="10" text-anchor="middle" transform="scale(1,-1) translate(22.4945,0)" style="stroke:none"><tspan xmlns="http://www.w3.org/2000/svg" font-size="10" font-family="ecrm">Test</tspan></text></g></g></g></g><g xmlns="http://www.w3.org/2000/svg" transform="translate(-150.63467,-165.27771)"><g xmlns="http://www.w3.org/2000/svg" fill="#000"><text xmlns="http://www.w3.org/2000/svg" font-size="10" text-anchor="middle" transform="scale(1,-1) translate(10.30304,0)" style="stroke:none"><tspan xmlns="http://www.w3.org/2000/svg" font-size="10" font-family="ecrm">suite</tspan></text></g></g><g xmlns="http://www.w3.org/2000/svg" transform="translate(167.02524,-154.57132)"><g xmlns="http://www.w3.org/2000/svg" fill="#000"><text xmlns="http://www.w3.org/2000/svg" font-size="10" text-anchor="middle" transform="scale(1,-1) translate(16.63483,0)" style="stroke:none"><tspan xmlns="http://www.w3.org/2000/svg" font-size="10" fill="#9e9e9e" font-family="ecrm">Discard</tspan></text></g></g><g xmlns="http://www.w3.org/2000/svg" stroke-width="1.2"><g xmlns="http://www.w3.org/2000/svg" fill="#626e80" stroke="#626e80"><path xmlns="http://www.w3.org/2000/svg" fill="none" d=" M -114.30498 0.0 L -35.52449 0.0  "/><g xmlns="http://www.w3.org/2000/svg" transform="translate(-34.9245,0.0)"><g xmlns="http://www.w3.org/2000/svg" stroke-dashoffset="0.0" stroke-dasharray="none"><g xmlns="http://www.w3.org/2000/svg" stroke-linecap="round"><g xmlns="http://www.w3.org/2000/svg" stroke-linejoin="round"><path xmlns="http://www.w3.org/2000/svg" fill="none" d=" M -3.04 3.84514 C -2.4846 1.53802 -1.24696 0.4486 0.0 0.0 C -1.24696 -0.4486 -2.4846 -1.53802 -3.04 -3.84514  "/></g></g></g></g></g></g><g xmlns="http://www.w3.org/2000/svg" stroke-width="1.2"><g xmlns="http://www.w3.org/2000/svg" fill="#626e80" stroke="#626e80"><path xmlns="http://www.w3.org/2000/svg" fill="none" d=" M 34.32031 -0.42685 L 114.87248 -1.42917  "/><g xmlns="http://www.w3.org/2000/svg" transform="matrix(0.99988,-0.01244,0.01244,0.99988,115.47238,-1.43661)"><g xmlns="http://www.w3.org/2000/svg" stroke-dashoffset="0.0" stroke-dasharray="none"><g xmlns="http://www.w3.org/2000/svg" stroke-linecap="round"><g xmlns="http://www.w3.org/2000/svg" stroke-linejoin="round"><path xmlns="http://www.w3.org/2000/svg" fill="none" d=" M -3.04 3.84514 C -2.4846 1.53802 -1.24696 0.4486 0.0 0.0 C -1.24696 -0.4486 -2.4846 -1.53802 -3.04 -3.84514  "/></g></g></g></g></g></g><g xmlns="http://www.w3.org/2000/svg" stroke-width="1.2"><g xmlns="http://www.w3.org/2000/svg" fill="#626e80" stroke="#626e80"><path xmlns="http://www.w3.org/2000/svg" fill="none" d=" M -33.90288 -5.36006 C -60.21225 -14.50522 -75.26115 -31.92091 -80.27048 -58.09952  "/><g xmlns="http://www.w3.org/2000/svg" transform="matrix(-0.18793,-0.98215,0.98215,-0.18793,-80.38322,-58.6888)"><g xmlns="http://www.w3.org/2000/svg" stroke-dashoffset="0.0" stroke-dasharray="none"><g xmlns="http://www.w3.org/2000/svg" stroke-linecap="round"><g xmlns="http://www.w3.org/2000/svg" stroke-linejoin="round"><path xmlns="http://www.w3.org/2000/svg" fill="none" d=" M -3.04 3.84514 C -2.4846 1.53802 -1.24696 0.4486 0.0 0.0 C -1.24696 -0.4486 -2.4846 -1.53802 -3.04 -3.84514  "/></g></g></g></g><g xmlns="http://www.w3.org/2000/svg" transform="translate(-61.17023,-48.92825)"><g xmlns="http://www.w3.org/2000/svg" fill="#626e80"><text xmlns="http://www.w3.org/2000/svg" font-size="10" text-anchor="middle" transform="scale(1,-1) translate(12.77466,0)" style="stroke:none"><tspan xmlns="http://www.w3.org/2000/svg" font-size="10" font-family="ecrm">Select</tspan></text></g></g></g></g><g xmlns="http://www.w3.org/2000/svg" stroke-width="1.2"><g xmlns="http://www.w3.org/2000/svg" fill="#626e80" stroke="#626e80"><path xmlns="http://www.w3.org/2000/svg" fill="none" d=" M -83.69576 -76.30893 C -81.80319 -104.42667 -68.8193 -123.78427 -44.5995 -135.67542  "/><g xmlns="http://www.w3.org/2000/svg" transform="matrix(0.89761,-0.44069,0.44069,0.89761,-44.06094,-135.93982)"><g xmlns="http://www.w3.org/2000/svg" stroke-dashoffset="0.0" stroke-dasharray="none"><g xmlns="http://www.w3.org/2000/svg" stroke-linecap="round"><g xmlns="http://www.w3.org/2000/svg" stroke-linejoin="round"><path xmlns="http://www.w3.org/2000/svg" fill="none" d=" M -3.04 3.84514 C -2.4846 1.53802 -1.24696 0.4486 0.0 0.0 C -1.24696 -0.4486 -2.4846 -1.53802 -3.04 -3.84514  "/></g></g></g></g><g xmlns="http://www.w3.org/2000/svg" transform="translate(-68.45354,-95.59172)"><g xmlns="http://www.w3.org/2000/svg" fill="#626e80"><text xmlns="http://www.w3.org/2000/svg" font-size="10" text-anchor="middle" transform="scale(1,-1) translate(15.96832,0)" style="stroke:none"><tspan xmlns="http://www.w3.org/2000/svg" font-size="10" font-family="ecrm">Mutate</tspan></text></g></g></g></g><g xmlns="http://www.w3.org/2000/svg" stroke-width="1.2"><g xmlns="http://www.w3.org/2000/svg" fill="#626e80" stroke="#626e80"><path xmlns="http://www.w3.org/2000/svg" fill="none" d=" M 43.52238 -151.12772 L 162.2931 -151.12772  "/><g xmlns="http://www.w3.org/2000/svg" transform="translate(162.8931,-151.12772)"><g xmlns="http://www.w3.org/2000/svg" stroke-dashoffset="0.0" stroke-dasharray="none"><g xmlns="http://www.w3.org/2000/svg" stroke-linecap="round"><g xmlns="http://www.w3.org/2000/svg" stroke-linejoin="round"><path xmlns="http://www.w3.org/2000/svg" fill="none" d=" M -3.04 3.84514 C -2.4846 1.53802 -1.24696 0.4486 0.0 0.0 C -1.24696 -0.4486 -2.4846 -1.53802 -3.04 -3.84514  "/></g></g></g></g><g xmlns="http://www.w3.org/2000/svg" transform="translate(90.53868,-145.2516)"><g xmlns="http://www.w3.org/2000/svg" fill="#626e80"><text xmlns="http://www.w3.org/2000/svg" font-size="10" text-anchor="middle" transform="scale(1,-1) translate(27.9654,0)" style="stroke:none"><tspan xmlns="http://www.w3.org/2000/svg" font-size="10" font-family="ecrm">any test fails</tspan></text></g></g></g></g><g xmlns="http://www.w3.org/2000/svg" stroke-width="1.2"><g xmlns="http://www.w3.org/2000/svg" fill="#626e80" stroke="#626e80"><path xmlns="http://www.w3.org/2000/svg" fill="none" d=" M 43.52238 -151.12772 C 95.50777 -128.16612 88.38527 -21.78609 34.9553 -6.29388  "/><g xmlns="http://www.w3.org/2000/svg" transform="matrix(-0.9604,0.27846,-0.27846,-0.9604,34.37907,-6.12682)"><g xmlns="http://www.w3.org/2000/svg" stroke-dashoffset="0.0" stroke-dasharray="none"><g xmlns="http://www.w3.org/2000/svg" stroke-linecap="round"><g xmlns="http://www.w3.org/2000/svg" stroke-linejoin="round"><path xmlns="http://www.w3.org/2000/svg" fill="none" d=" M -3.04 3.84514 C -2.4846 1.53802 -1.24696 0.4486 0.0 0.0 C -1.24696 -0.4486 -2.4846 -1.53802 -3.04 -3.84514  "/></g></g></g></g><g xmlns="http://www.w3.org/2000/svg" transform="translate(92.55522,-78.3396)"><g xmlns="http://www.w3.org/2000/svg" fill="#626e80"><text xmlns="http://www.w3.org/2000/svg" font-size="10" text-anchor="middle" transform="scale(1,-1) translate(27.88208,0)" style="stroke:none"><tspan xmlns="http://www.w3.org/2000/svg" font-size="10" font-family="ecrm">all tests pass</tspan></text></g></g></g></g><g xmlns="http://www.w3.org/2000/svg" stroke-width="1.2"><g xmlns="http://www.w3.org/2000/svg" fill="#626e80" stroke="#626e80"><path xmlns="http://www.w3.org/2000/svg" fill="none" d=" M -114.30498 -151.48282 L -44.7223 -151.13373  "/><g xmlns="http://www.w3.org/2000/svg" transform="matrix(0.99995,0.00502,-0.00502,0.99995,-44.12234,-151.13072)"><g xmlns="http://www.w3.org/2000/svg" stroke-dashoffset="0.0" stroke-dasharray="none"><g xmlns="http://www.w3.org/2000/svg" stroke-linecap="round"><g xmlns="http://www.w3.org/2000/svg" stroke-linejoin="round"><path xmlns="http://www.w3.org/2000/svg" fill="none" d=" M -3.04 3.84514 C -2.4846 1.53802 -1.24696 0.4486 0.0 0.0 C -1.24696 -0.4486 -2.4846 -1.53802 -3.04 -3.84514  "/></g></g></g></g></g></g></g></g></g></svg>
