<?xml version="1.0" encoding="UTF-8" standalone="no"?>
<!-- Generator: Adobe Illustrator 21.0.0, SVG Export Plug-In . SVG Version: 6.00 Build 0)  -->

<svg
   xmlns:dc="http://purl.org/dc/elements/1.1/"
   xmlns:cc="http://creativecommons.org/ns#"
   xmlns:rdf="http://www.w3.org/1999/02/22-rdf-syntax-ns#"
   xmlns:svg="http://www.w3.org/2000/svg"
   xmlns="http://www.w3.org/2000/svg"
   xmlns:sodipodi="http://sodipodi.sourceforge.net/DTD/sodipodi-0.dtd"
   xmlns:inkscape="http://www.inkscape.org/namespaces/inkscape"
   version="1.1"
   id="Livello_1"
   x="0px"
   y="0px"
   viewBox="0 0 269.7 263.2"
   style="enable-background:new 0 0 269.7 263.2;"
   xml:space="preserve"
   sodipodi:docname="SSR.svg"
   inkscape:version="0.92.2 5c3e80d, 2017-08-06"><metadata
     id="metadata80"><rdf:RDF><cc:Work
         rdf:about=""><dc:format>image/svg+xml</dc:format><dc:type
           rdf:resource="http://purl.org/dc/dcmitype/StillImage" /><dc:title>Risorsa 1</dc:title></cc:Work></rdf:RDF></metadata><defs
     id="defs78" /><sodipodi:namedview
     pagecolor="#ffffff"
     bordercolor="#666666"
     borderopacity="1"
     objecttolerance="10"
     gridtolerance="10"
     guidetolerance="10"
     inkscape:pageopacity="0"
     inkscape:pageshadow="2"
     inkscape:window-width="1191"
     inkscape:window-height="1007"
     id="namedview76"
     showgrid="false"
     inkscape:zoom="2.5759877"
     inkscape:cx="149.57415"
     inkscape:cy="152.20517"
     inkscape:window-x="411"
     inkscape:window-y="0"
     inkscape:window-maximized="0"
     inkscape:current-layer="Livello_2" /><style
     type="text/css"
     id="style65">
	.st0{fill:#6E7C92;}
</style><title
     id="title67">Risorsa 1</title><g
     id="Livello_2"><g
       id="Livello_1-2"><path
         class="st0"
         d="M49.9,13.4c275.7-41.9,216.7,313.5,15.2,185.1c2.5-3.4,0.9-1.6,3.5-5.1l-11.3-10.9c-1.7,0.9-3.4,1.9-5,3    c-2.3-2.4-6.2-5.4-8.4-8.2l-13.3,11c1.6,2.2,6.2,6.8,7.9,8.8c-9,7.5-31.5,27.1-34.7,31.8c-13.9,17.3,12.2,39.6,25.1,25.4    c5.1-4,18.8-25.4,27.8-38.6c23.2,24.4,54.7,41.4,97.2,40.6c9.5-0.2,65.1-2.4,100.7-62.1c26-43.7,18.5-109.3-28.1-154.5    C176.2-9.8,100.4-6,49.9,13.4z"
         id="path69" /><path
         class="st0"
         d="m 142.83864,120.45605 -18.3354,15.80619 C 172.40324,186.06224 233,253 240.3,261.2 247.6,269.4 269.8,250 262.4,241.5 255,233 173.60944,151.58525 142.83864,120.45605 Z"
         id="path71"
         inkscape:connector-curvature="0"
         style="fill:#6e7c92"
         sodipodi:nodetypes="ccssc" /></g><path
       style="fill:#6e7c92;fill-opacity:1;stroke-width:1.28053355"
       clip-path="none"
       d="M 98.020415,39.597128 A 55.706842,54.153975 0 0 0 42.314123,93.750098 55.706842,54.153975 0 0 0 98.020415,147.90526 55.706842,54.153975 0 0 0 153.72672,93.750098 55.706842,54.153975 0 0 0 98.020415,39.597128 Z m -0.733689,15.732701 a 40.220769,38.494991 0 0 1 40.220904,38.494675 40.220769,38.494991 0 0 1 -40.220904,38.494686 40.220769,38.494991 0 0 1 -40.2209,-38.494686 40.220769,38.494991 0 0 1 40.2209,-38.494675 z"
       id="path3771"
       inkscape:connector-curvature="0" /></g></svg>